<svg width="24" height="24" viewBox="0 0 24 24" fill="none" xmlns="http://www.w3.org/2000/svg">
<g clip-path="url(#clip0_7_2)">
<path d="M5.936 4.694C5.6 4.694 5.261 4.772 4.923 4.916C4.583 5.061 4.247 5.262 3.916 5.521C3.56471 5.79568 3.23996 6.10269 2.946 6.438C2.633 6.792 2.336 7.183 2.059 7.602C1.783 8.022 1.526 8.469 1.279 8.922H1.278V8.923C1.039 9.396 0.83 9.883 0.648 10.378C0.468 10.874 0.324 11.371 0.21 11.875C0.1 12.375 0.032 12.862 0.01 13.34C0.00397186 13.37 0.00062531 13.4004 0 13.431L0 13.526C0 13.787 0.038 14.056 0.075 14.302V14.304L0.076 14.306C0.144 14.568 0.251 14.81 0.386 15.023C0.524433 15.2333 0.70785 15.4102 0.923 15.541C1.14 15.679 1.397 15.748 1.699 15.748C1.962 15.748 2.235 15.688 2.516 15.563C2.795 15.438 3.073 15.275 3.35 15.084C3.618 14.892 3.886 14.672 4.144 14.424C4.351 14.232 4.54 14.032 4.727 13.834L4.531 14.442C4.446 14.735 4.351 15.018 4.274 15.295C4.189 15.569 4.122 15.815 4.065 16.033C4.008 16.249 3.969 16.395 3.969 16.489V16.704C3.969 16.945 3.994 17.115 4.073 17.222C4.11229 17.2721 4.16304 17.3121 4.22099 17.3386C4.27893 17.365 4.34238 17.3772 4.406 17.374C4.50242 17.3726 4.59564 17.3392 4.671 17.279C4.752 17.219 4.821 17.142 4.89 17.055V17.053L4.892 17.052C4.949 16.965 5.007 16.872 5.056 16.774C5.106 16.673 5.134 16.584 5.163 16.505L5.23 16.264L5.373 15.769L5.563 15.107C5.639 14.86 5.705 14.612 5.79 14.36L6.015 13.61C6.087 13.366 6.155 13.145 6.218 12.949C6.281 12.749 6.334 12.587 6.378 12.456C6.398 12.391 6.418 12.34 6.432 12.302L6.446 12.27L6.486 12.288L6.504 12.24C6.58 12.022 6.655 11.813 6.731 11.614C6.807 11.414 6.883 11.214 6.941 11.017C7.08913 10.6032 7.16359 10.1666 7.161 9.727C7.16203 9.63947 7.14501 9.55266 7.111 9.472C7.08546 9.40253 7.04282 9.34062 6.987 9.292C6.93637 9.24723 6.87717 9.21321 6.813 9.192C6.75161 9.17221 6.68751 9.16209 6.623 9.162C6.48686 9.16402 6.35474 9.20841 6.245 9.289C6.116 9.375 6.02 9.518 5.948 9.711L5.398 11.476C5.3057 11.6549 5.19972 11.8264 5.081 11.989C4.59526 12.6732 4.02015 13.2903 3.371 13.822C3.18536 13.9769 2.98431 14.1122 2.771 14.226C2.61902 14.3154 2.4472 14.3656 2.271 14.372C2.15812 14.3754 2.04765 14.339 1.959 14.269C1.86718 14.1977 1.79663 14.1026 1.755 13.994C1.70475 13.8698 1.67048 13.7398 1.653 13.607C1.63432 13.4671 1.62496 13.3261 1.625 13.185C1.625 12.772 1.691 12.311 1.823 11.791C1.955 11.271 2.135 10.751 2.362 10.212C2.589 9.672 2.854 9.152 3.148 8.641C3.441 8.13 3.753 7.676 4.074 7.279C4.394 6.883 4.714 6.573 5.044 6.329C5.371 6.085 5.664 5.967 5.946 5.967C6.12246 5.96441 6.29562 6.01493 6.443 6.112C6.595 6.21 6.733 6.375 6.863 6.608C6.997 6.867 7.132 7.067 7.248 7.213C7.368 7.363 7.507 7.44 7.656 7.44C7.73687 7.4408 7.81676 7.42235 7.88909 7.38618C7.96142 7.35002 8.02412 7.29717 8.072 7.232C8.187 7.094 8.242 6.905 8.242 6.676C8.242 6.58 8.232 6.476 8.212 6.369C8.18928 6.24908 8.14158 6.13528 8.072 6.035C7.758 5.565 7.421 5.228 7.062 5.011H7.06C6.72013 4.80656 6.33261 4.69709 5.936 4.694ZM16.897 5.549C16.752 5.5512 16.6103 5.59267 16.487 5.669L16.485 5.67C16.3355 5.77538 16.224 5.92618 16.167 6.1L14.278 10.858L13.861 11.903C13.708 12.283 13.566 12.663 13.414 13.051C13.3443 13.231 13.2855 13.415 13.238 13.602C13.1548 13.6765 13.069 13.7482 12.981 13.817C12.774 13.977 12.578 14.098 12.392 14.182H12.39C12.2478 14.2604 12.0893 14.3046 11.927 14.311C11.845 14.311 11.79 14.291 11.755 14.258C11.72 14.225 11.699 14.174 11.699 14.092C11.699 13.907 11.727 13.702 11.783 13.477C11.84 13.257 11.915 13.026 12 12.794C12.0815 12.5602 12.1729 12.33 12.274 12.104L12.55 11.46C12.636 11.26 12.703 11.078 12.76 10.926C12.8108 10.8063 12.8409 10.6788 12.849 10.549C12.8511 10.3915 12.8008 10.2378 12.706 10.112C12.6608 10.0516 12.6018 10.0028 12.534 9.96977C12.4662 9.93672 12.3914 9.92034 12.316 9.922C12.2434 9.92032 12.1714 9.93563 12.1058 9.96671C12.0402 9.99779 11.9827 10.0438 11.938 10.101C11.8311 10.2263 11.7453 10.3681 11.684 10.521C11.604 10.6948 11.5368 10.8743 11.483 11.058C11.427 11.248 11.352 11.426 11.276 11.593C11.163 11.843 11.03 12.117 10.86 12.419C10.6937 12.7161 10.5048 12.9999 10.295 13.268C10.088 13.528 9.863 13.747 9.62 13.922C9.40417 14.0861 9.14114 14.1763 8.87 14.179C8.787 14.179 8.732 14.149 8.703 14.091C8.6673 14.0215 8.64944 13.9441 8.651 13.866C8.661 13.662 8.697 13.447 8.763 13.223C8.829 13.001 8.904 12.78 8.989 12.563C9.074 12.353 9.169 12.139 9.272 11.938C9.377 11.737 9.472 11.547 9.566 11.378V11.377L9.814 10.907C9.86762 10.8007 9.91276 10.6904 9.949 10.577L9.95 10.575C9.96 10.535 9.971 10.484 9.971 10.429C9.97245 10.3541 9.9538 10.2802 9.917 10.215V10.214L9.916 10.213C9.87899 10.1529 9.83026 10.1008 9.7727 10.0599C9.71515 10.019 9.64995 9.99016 9.581 9.975C9.48189 9.94394 9.37678 9.93709 9.27448 9.95501C9.17217 9.97293 9.07565 10.0151 8.993 10.078C8.861 10.169 8.762 10.31 8.674 10.504C8.38478 11.0981 8.12121 11.7043 7.884 12.321C7.694 12.826 7.561 13.235 7.466 13.55C7.39375 13.7788 7.33926 14.0128 7.303 14.25V14.251L7.283 14.482V14.484C7.283 14.698 7.312 14.884 7.373 15.034V15.036C7.441 15.183 7.521 15.302 7.622 15.393C7.72567 15.4836 7.84888 15.5489 7.982 15.584C8.114 15.624 8.252 15.643 8.392 15.643C8.703 15.643 8.99 15.585 9.253 15.488C9.516 15.391 9.754 15.256 9.967 15.092C10.1752 14.9317 10.3641 14.7478 10.53 14.544C10.65 14.404 10.74 14.259 10.83 14.117C10.79 14.337 10.752 14.554 10.752 14.731C10.752 15.061 10.815 15.301 10.954 15.448C11.0213 15.5183 11.1027 15.5737 11.1928 15.6106C11.2829 15.6474 11.3797 15.6649 11.477 15.662C11.685 15.662 11.916 15.605 12.171 15.492C12.424 15.379 12.681 15.23 12.941 15.046C13.006 15.001 13.068 14.953 13.131 14.905L13.136 14.941C13.1631 15.0662 13.214 15.185 13.286 15.291L13.288 15.293C13.368 15.392 13.458 15.473 13.579 15.533C13.7198 15.5981 13.8739 15.6293 14.029 15.624C14.3005 15.6197 14.5683 15.5602 14.816 15.449H14.818C15.086 15.324 15.355 15.17 15.623 14.969C15.9075 14.7533 16.1786 14.5205 16.435 14.272L16.445 14.263C16.399 14.369 16.355 14.475 16.307 14.582C16.088 15.066 15.865 15.554 15.633 16.053C15.4 16.553 15.167 17.047 14.949 17.541L14.948 17.544L14.947 17.546C14.9158 17.6399 14.8812 17.7327 14.843 17.824C14.807 17.916 14.758 18.012 14.728 18.122C14.691 18.222 14.653 18.321 14.633 18.429C14.603 18.539 14.593 18.646 14.593 18.744C14.593 18.952 14.652 19.111 14.765 19.191C14.8822 19.2704 15.0215 19.3107 15.163 19.306C15.285 19.306 15.397 19.276 15.498 19.226L15.499 19.225C15.5993 19.1682 15.6884 19.0937 15.762 19.005C15.838 18.915 15.902 18.813 15.96 18.697C16.0175 18.578 16.0689 18.4562 16.114 18.332L16.116 18.328V18.324C16.124 18.287 16.153 18.203 16.2 18.08L16.362 17.644L16.552 17.132L16.751 16.61L16.921 16.175C16.969 16.051 16.998 15.965 17.016 15.92C17.035 15.882 17.064 15.824 17.101 15.73L17.234 15.417L17.395 15.047L17.567 14.667L17.709 14.325L17.812 14.099L17.813 14.098C17.898 13.928 18.001 13.74 18.115 13.532C18.238 13.325 18.37 13.126 18.511 12.919C18.663 12.719 18.813 12.521 18.974 12.333C19.135 12.146 19.304 11.986 19.474 11.835C19.647 11.695 19.82 11.573 19.995 11.49C20.1494 11.4098 20.3201 11.366 20.494 11.362C20.58 11.362 20.637 11.38 20.672 11.401C20.6859 11.4142 20.6969 11.4302 20.7041 11.448C20.7113 11.4657 20.7147 11.4848 20.714 11.504C20.714 11.584 20.671 11.711 20.57 11.857C20.466 12.017 20.344 12.188 20.193 12.377C20.031 12.567 19.87 12.766 19.69 12.974C19.51 13.184 19.338 13.393 19.176 13.602C19.0269 13.7947 18.8893 13.9961 18.764 14.205V14.206C18.6629 14.3682 18.5934 14.548 18.559 14.736V14.743C18.5581 14.7504 18.5568 14.7578 18.555 14.765C18.552 14.775 18.549 14.779 18.549 14.8V14.857C18.549 15.114 18.641 15.322 18.823 15.463C19.006 15.615 19.264 15.683 19.583 15.683C19.932 15.683 20.253 15.615 20.553 15.479C20.851 15.345 21.158 15.163 21.473 14.923H21.474C21.789 14.687 22.114 14.406 22.465 14.08C22.806 13.755 23.204 13.395 23.649 13C23.7657 12.9077 23.8561 12.7863 23.911 12.648C23.97 12.51 24 12.373 24 12.238C24.0021 12.1246 23.9738 12.0127 23.918 11.914C23.8942 11.869 23.8585 11.8314 23.8147 11.8053C23.771 11.7792 23.7209 11.7656 23.67 11.766C23.6127 11.7674 23.5566 11.7821 23.506 11.809C23.453 11.835 23.397 11.869 23.336 11.91C23.232 11.943 23.353 11.973 23.366 12.018C22.828 12.499 22.362 12.905 21.993 13.224C21.613 13.556 21.294 13.812 21.047 14.012C20.864 14.16 20.6723 14.2969 20.473 14.422C20.341 14.501 20.24 14.539 20.184 14.539C20.106 14.539 20.052 14.519 20.028 14.496C20.0136 14.4821 20.0024 14.4652 19.9949 14.4466C19.9875 14.428 19.9841 14.408 19.985 14.388C19.9918 14.361 20.0037 14.3356 20.02 14.313C20.0558 14.26 20.0949 14.2092 20.137 14.161L20.535 13.696C20.697 13.515 20.859 13.315 21.039 13.096C21.219 12.876 21.389 12.649 21.541 12.414C21.701 12.184 21.826 11.947 21.931 11.714C22.032 11.481 22.087 11.259 22.087 11.048C22.0902 10.8991 22.0536 10.752 21.981 10.622C21.9123 10.5025 21.8176 10.4 21.704 10.322C21.594 10.242 21.466 10.182 21.329 10.141H21.328C20.9823 10.0444 20.6139 10.0702 20.285 10.214C20.0739 10.302 19.8733 10.4134 19.687 10.546C19.4893 10.6839 19.3006 10.8342 19.122 10.996C18.9919 11.1185 18.8652 11.2446 18.742 11.374L18.778 11.198C18.793 11.125 18.803 11.057 18.812 10.991V10.99C18.822 10.922 18.825 10.874 18.825 10.841C18.8326 10.7051 18.7874 10.5715 18.699 10.468V10.467H18.697C18.61 10.377 18.475 10.338 18.297 10.338C18.175 10.338 18.057 10.408 17.957 10.528C17.8538 10.6569 17.7656 10.7972 17.694 10.946C17.6169 11.1017 17.5494 11.262 17.492 11.426L17.359 11.804V11.805C17.313 11.964 17.262 12.126 17.209 12.29C17.195 12.2938 17.1813 12.2984 17.168 12.304C17.116 12.3219 17.0692 12.3525 17.032 12.393L17.035 12.39C16.917 12.504 16.784 12.637 16.636 12.779C16.489 12.921 16.333 13.063 16.172 13.205C16.01 13.338 15.846 13.48 15.682 13.612C15.52 13.742 15.362 13.857 15.211 13.957C15.061 14.058 14.921 14.137 14.792 14.198C14.6963 14.2486 14.591 14.2785 14.483 14.286C14.423 14.286 14.398 14.272 14.383 14.244H14.382C14.3581 14.196 14.3471 14.1426 14.35 14.089C14.35 13.976 14.37 13.846 14.414 13.699C14.456 13.553 14.5 13.425 14.544 13.314L14.572 13.284L14.946 12.332C15.088 11.967 15.24 11.586 15.411 11.18L15.924 9.926C16.094 9.499 16.266 9.086 16.427 8.692L16.902 7.59C17.044 7.254 17.168 6.971 17.272 6.742L17.271 6.744C17.33 6.627 17.368 6.517 17.406 6.424V6.422C17.4403 6.32664 17.4589 6.22633 17.461 6.125C17.461 5.929 17.4 5.775 17.281 5.682C17.1724 5.59435 17.0366 5.54732 16.897 5.549Z" fill="#F24E1E"/>
</g>
<defs>
<clipPath id="clip0_7_2">
<rect width="24" height="24" fill="white"/>
</clipPath>
</defs>
</svg>
